<svg xmlns="http://www.w3.org/2000/svg" width="15.658" height="22" viewBox="0 0 15.658 22">
  <g id="Icon" transform="translate(-6 -2)">
    <path id="Path_560" data-name="Path 560" d="M19.4,6.7a4.7,4.7,0,0,0-9.4,0v7.046a4.7,4.7,0,1,0,9.4,0Zm-1.566,0v7.046a3.132,3.132,0,0,1-6.263,0V6.7a3.132,3.132,0,0,1,6.263,0Z" transform="translate(-0.868)"/>
    <path id="Path_561" data-name="Path 561" d="M13.046,24.656V26.3a.783.783,0,0,0,1.566,0V24.734a7.873,7.873,0,0,0,7.046-7.751.783.783,0,0,0-1.566,0,6.263,6.263,0,1,1-12.527,0,.74.74,0,0,0-.783-.783A.74.74,0,0,0,6,16.983,7.856,7.856,0,0,0,13.046,24.656Z" transform="translate(0 -3.083)"/>
  </g>
</svg>
